<?xml version="1.0" standalone="no"?>
<!DOCTYPE svg PUBLIC "-//W3C//DTD SVG 20010904//EN"
 "http://www.w3.org/TR/2001/REC-SVG-20010904/DTD/svg10.dtd">
<svg version="1.0" xmlns="http://www.w3.org/2000/svg"
 width="201.000000pt" height="185.000000pt" viewBox="0 0 201.000000 185.000000"
 preserveAspectRatio="xMidYMid meet">

<g transform="translate(0.000000,185.000000) scale(0.100000,-0.100000)"
fill="#000000" stroke="none">
<path d="M464 1656 c-3 -9 14 -56 41 -108 146 -285 181 -346 212 -378 l35 -35
-6 35 c-5 29 -108 242 -218 450 -24 46 -54 63 -64 36z"/>
<path d="M740 335 c0 -72 3 -88 20 -105 44 -44 120 -11 120 53 0 17 -4 37 -8
44 -11 18 -57 32 -81 26 -18 -5 -21 -1 -21 31 0 25 -4 36 -15 36 -12 0 -15
-16 -15 -85z m101 -24 c26 -21 21 -43 -14 -65 -39 -25 -78 44 -41 71 23 17 27
17 55 -6z"/>
<path d="M1030 386 c0 -34 -1 -35 -41 -33 -32 1 -45 -4 -60 -22 -25 -30 -24
-76 1 -101 22 -22 69 -27 88 -8 8 8 15 8 27 -2 13 -11 15 -1 15 94 0 88 -3
106 -15 106 -10 0 -15 -10 -15 -34z m-19 -75 c26 -21 21 -43 -14 -65 -39 -25
-78 44 -41 71 23 17 27 17 55 -6z"/>
<path d="M1118 343 c-15 -4 -18 -16 -18 -69 0 -36 4 -64 10 -64 6 0 10 20 10
44 0 45 11 61 44 67 11 2 21 10 24 17 4 12 -33 15 -70 5z"/>
</g>
</svg>
