<?xml version="1.0" standalone="no"?>
<!DOCTYPE svg PUBLIC "-//W3C//DTD SVG 20010904//EN"
 "http://www.w3.org/TR/2001/REC-SVG-20010904/DTD/svg10.dtd">
<svg version="1.0" xmlns="http://www.w3.org/2000/svg"
 width="5000.000000pt" height="4000.000000pt" viewBox="0 0 5000.000000 4000.000000"
 preserveAspectRatio="xMidYMid meet">
<metadata>
Created by potrace 1.16, written by Peter Selinger 2001-2019
</metadata>
<g transform="translate(0.000000,4000.000000) scale(0.100000,-0.100000)"
fill="#000000" stroke="none">
<path d="M24620 30624 c-471 -25 -635 -39 -930 -74 -2935 -358 -5609 -1949
-7340 -4370 -1096 -1532 -1761 -3319 -1934 -5195 -33 -349 -40 -543 -40 -985
0 -771 58 -1375 200 -2090 838 -4197 4137 -7496 8334 -8334 715 -142 1319
-200 2090 -200 771 0 1375 58 2090 200 4197 838 7496 4137 8334 8334 142 715
200 1319 200 2090 0 533 -17 837 -74 1310 -467 3837 -3023 7142 -6630 8573
-1043 414 -2087 647 -3260 727 -153 11 -914 21 -1040 14z m831 -1154 c617 -31
1227 -119 1804 -260 2693 -658 4979 -2483 6226 -4972 1329 -2651 1332 -5811 9
-8453 l-125 -250 -1575 -1 c-866 0 -1546 1 -1510 3 1334 56 2174 189 2478 391
78 51 112 109 112 186 0 74 -32 137 -107 210 -109 108 -258 189 -583 319 -541
215 -736 316 -1425 732 -422 255 -562 344 -738 468 -60 42 -154 99 -209 127
-58 30 -98 56 -95 63 3 7 80 189 171 406 138 328 164 397 153 410 -53 68 -751
846 -1001 1116 -489 530 -1154 1194 -1326 1324 -142 107 -309 172 -450 174
-107 1 -298 -72 -715 -273 -194 -93 -219 -104 -210 -90 3 5 130 100 282 211
428 314 623 478 623 523 0 23 -47 31 -109 18 -72 -15 -293 -123 -507 -248
-391 -226 -444 -253 -444 -224 0 6 141 152 313 323 299 297 384 393 429 480
42 84 2 123 -95 92 -107 -34 -250 -136 -577 -410 -202 -169 -329 -265 -351
-265 -16 0 269 473 366 606 194 265 256 370 260 443 2 40 55 137 438 796 298
511 433 751 424 756 -6 3 -490 217 -1074 474 -585 258 -1061 470 -1060 471 4
4 2300 -887 2310 -896 5 -4 -235 -466 -532 -1026 -298 -559 -540 -1018 -538
-1020 5 -4 1419 2247 1414 2252 -10 11 -2860 1055 -2870 1051 -11 -3 -19 -26
-172 -472 -58 -170 -162 -472 -230 -670 -519 -1513 -725 -2118 -722 -2121 2
-2 196 440 432 981 235 542 430 984 431 982 2 -2 -185 -459 -416 -1017 -231
-558 -420 -1016 -420 -1019 0 -3 232 -100 515 -215 l514 -208 -29 -52 c-42
-75 -64 -157 -131 -484 -81 -397 -138 -581 -225 -723 -112 -184 -524 -544
-1074 -940 -198 -142 -168 -143 -253 8 l-52 92 -22 -85 c-13 -47 -46 -131 -75
-187 -45 -89 -65 -115 -157 -207 l-106 -105 -265 -147 c-146 -80 -309 -170
-363 -198 l-98 -53 -35 34 c-81 78 -352 446 -338 458 5 4 79 41 164 81 236
110 1248 641 1423 746 16 9 10 37 -88 380 -274 955 -484 1601 -577 1776 -68
128 -212 250 -360 308 -232 90 -529 77 -766 -35 -275 -130 -436 -542 -477
-1220 l-6 -100 245 -998 c134 -550 247 -1002 250 -1005 3 -3 35 6 71 20 36 15
67 23 69 20 2 -4 23 -58 46 -121 263 -713 646 -1083 1204 -1160 143 -20 175
-16 273 34 143 74 307 204 592 468 447 416 1144 1197 1375 1541 87 130 200
245 316 320 67 44 205 114 513 260 55 25 210 115 345 200 448 278 692 419 797
458 50 18 82 22 190 22 143 1 178 -7 315 -73 145 -69 305 -256 1201 -1406 595
-763 939 -1212 939 -1225 0 -5 -12 -46 -26 -92 -94 -300 -341 -660 -700 -1023
-110 -111 -109 -117 6 -26 80 62 230 213 336 337 113 132 138 149 222 148 47
0 60 -6 125 -52 343 -245 523 -354 1227 -747 483 -270 516 -287 810 -420 272
-123 319 -147 403 -203 119 -78 153 -153 108 -240 -45 -88 -127 -118 -454
-167 -877 -130 -2611 -172 -3015 -74 -151 37 -229 129 -239 278 -4 56 3 126
26 267 52 317 40 504 -39 652 -112 209 -369 503 -914 1047 -602 601 -1286
1224 -1400 1276 -55 25 -79 24 -114 -6 -42 -35 -65 -95 -112 -295 -152 -634
-233 -876 -417 -1244 -195 -390 -457 -805 -784 -1243 -75 -101 -135 -183 -133
-183 14 0 109 55 169 98 145 102 300 267 442 468 228 325 398 656 699 1361
184 432 236 529 294 553 72 30 191 -14 342 -127 143 -108 264 -216 1119 -994
472 -430 659 -714 659 -1002 0 -34 -16 -157 -35 -271 -54 -323 -48 -540 21
-679 92 -189 288 -275 699 -306 61 -5 -1187 -8 -2810 -8 -1606 0 -2904 2
-2885 4 19 2 91 15 158 29 288 57 590 181 945 386 138 80 179 110 87 63 -219
-111 -592 -226 -889 -275 -410 -66 -710 -45 -1081 76 -465 152 -803 431 -1009
834 -135 264 -207 498 -331 1070 -34 157 -126 575 -205 930 -305 1365 -433
2008 -501 2515 -23 172 -24 435 -1 570 62 362 223 737 463 1082 115 165 244
283 309 283 69 0 806 -407 1653 -914 118 -70 216 -125 219 -122 13 13 57 710
51 811 -3 55 -4 58 -15 34 -9 -21 -93 -553 -93 -591 0 -6 -8 -8 -17 -6 -17 5
-1751 973 -1762 984 -10 10 17 301 32 335 23 55 86 119 142 145 59 28 156 32
212 9 19 -8 277 -148 572 -310 295 -162 545 -295 554 -295 10 0 29 11 42 24
23 23 24 29 18 104 -5 74 -4 83 23 131 39 72 123 135 208 155 54 13 150 7 241
-15 114 -28 237 -30 282 -6 53 28 66 66 60 171 -2 50 -8 98 -12 107 -5 13 4
23 33 39 55 31 69 59 53 109 -6 22 -25 51 -41 65 -17 13 -30 27 -30 29 0 2 17
9 38 15 20 6 54 25 75 42 49 41 48 70 -4 151 -43 66 -69 119 -69 141 0 9 21
13 74 15 89 2 144 16 174 43 34 32 29 118 -19 338 -22 103 -47 229 -56 281
-21 127 -10 173 64 283 31 46 74 109 96 140 51 76 74 145 82 252 6 73 13 97
37 136 74 119 109 418 73 625 -26 145 -109 319 -189 394 l-25 23 31 -78 c50
-129 49 -240 -2 -272 -11 -7 -47 -15 -79 -18 -91 -10 -182 17 -288 84 -203
128 -379 194 -668 249 -175 33 -205 36 -375 36 -162 1 -200 -3 -306 -25 -371
-80 -746 -310 -937 -576 -218 -303 -320 -697 -304 -1176 12 -362 80 -654 212
-921 97 -195 55 -163 623 -475 276 -151 500 -275 498 -277 -1 -1 -240 112
-531 253 -545 263 -565 271 -636 249 -41 -13 -76 -43 -94 -82 -14 -29 -21 -98
-36 -330 l-18 -294 -134 -134 c-314 -312 -544 -639 -631 -900 -25 -72 -59
-266 -69 -385 -2 -25 -4 1403 -5 3172 l-2 3217 73 41 c39 23 189 99 332 170
1061 526 2186 841 3375 945 391 34 891 44 1271 25z m-6061 -8295 l0 -6455
6741 -2 6741 -3 -87 -125 c-511 -736 -1164 -1432 -1878 -2003 -2196 -1755
-5059 -2440 -7830 -1871 -2432 499 -4596 1963 -5977 4045 -860 1297 -1381
2756 -1534 4304 -34 339 -41 491 -41 935 0 444 7 596 41 935 171 1726 808
3364 1846 4745 433 578 952 1125 1513 1596 152 127 443 354 456 354 5 0 9
-2485 9 -6455z m1055 -421 c91 -821 310 -1896 629 -3089 47 -176 101 -385 120
-465 73 -304 157 -519 288 -738 299 -497 759 -805 1366 -912 l107 -18 -1277
-1 -1278 -1 1 2853 c1 2414 3 2827 14 2686 7 -91 21 -232 30 -315z"/>
<path d="M28773 24556 l-661 -110 -680 -1331 c-374 -731 -678 -1331 -674
-1333 4 -1 124 43 267 98 143 55 263 100 267 100 4 0 9 -86 10 -192 l3 -192
270 -33 c149 -17 280 -32 293 -32 17 -1 -1 19 -75 78 -111 89 -232 210 -257
258 -39 76 -6 143 60 124 70 -20 169 -84 307 -199 63 -53 86 -67 72 -47 -179
272 -283 533 -233 583 47 47 129 -34 286 -280 62 -97 118 -175 128 -177 15 -3
16 3 11 58 -4 33 -27 153 -52 267 -51 228 -56 309 -20 309 30 0 80 -108 115
-249 17 -66 32 -121 33 -122 1 -2 272 566 601 1262 329 696 597 1266 595 1268
-2 1 -302 -47 -666 -108z"/>
<path d="M23461 22870 c0 -8 -17 -211 -37 -451 l-37 -435 48 -85 c75 -131 188
-367 243 -507 28 -70 126 -334 218 -587 91 -253 172 -473 179 -490 12 -27 13
-19 14 85 2 263 -88 599 -283 1063 -130 309 -203 592 -301 1167 -24 140 -44
248 -44 240z"/>
</g>
</svg>
